<?xml version="1.0" encoding="UTF-8"?>
<svg id="Capa_2" data-name="Capa 2" xmlns="http://www.w3.org/2000/svg" viewBox="0 0 82.32 31.71">
  <g id="Capa_2-2" data-name="Capa 2">
    <g>
      <rect x="30.8" y="27.41" width="12.14" height="0" transform="translate(-8.59 34.1) rotate(-45)" style="fill: none;"/>
      <polygon points="42.11 0 44.47 0 44.48 0 44.48 1.9 44.47 1.9 42.11 1.9 42.11 4.26 40.21 4.26 40.21 1.9 37.85 1.9 37.85 0 40.21 0 40.21 0 37.13 0 36.07 1.06 41.16 6.15 46.25 1.06 45.19 0 42.11 0 42.11 0" style="fill: none;"/>
      <polygon points="0 0 0 2.59 2.59 0 0 0" style="fill: #c90867;"/>
      <polygon points="41.16 10.72 50.82 1.06 49.76 0 45.19 0 46.25 1.06 41.16 6.15 36.07 1.06 37.13 0 32.56 0 31.5 1.06 41.16 10.72" style="fill: #c90867;"/>
      <polygon points="50.82 1.06 50.83 1.06 49.77 0 49.76 0 50.82 1.06" style="fill: #c90867;"/>
      <polygon points="37.85 0 37.85 1.9 40.21 1.9 40.21 4.26 42.11 4.26 42.11 1.9 44.47 1.9 44.47 0 42.11 0 42.11 0 40.21 0 40.21 0 37.85 0" style="fill: #c90867;"/>
      <rect x="44.47" y="0" width="0" height="1.9" style="fill: #c90867;"/>
      <polygon points="59.55 0 54.98 0 41.16 13.81 27.35 0 22.78 0 41.16 18.38 59.55 0" style="fill: #c90867;"/>
      <polygon points="32.58 31.71 37.14 31.71 41.16 27.69 45.18 31.71 49.76 31.71 41.16 23.13 32.58 31.71" style="fill: #c90867;"/>
      <rect x="45.46" y="21.34" width="0" height="12.15" transform="translate(-6.06 40.2) rotate(-45.03)" style="fill: #c90867;"/>
      <polygon points="42.11 29.35 41.16 29.35 40.21 29.35 40.21 31.71 42.11 31.71 42.11 29.35" style="fill: #c90867;"/>
      <polygon points="28.04 14.56 35.34 21.86 30.25 26.95 26.63 23.34 27.98 21.99 30.31 24.31 32.59 22.03 27.98 17.41 22.06 23.34 30.25 31.52 39.91 21.86 28.04 9.99 14.55 23.48 22.78 31.71 27.35 31.71 19.12 23.48 28.04 14.56" style="fill: #c90867;"/>
      <polygon points="54.29 9.99 42.42 21.86 52.08 31.52 60.27 23.34 54.35 17.41 49.74 22.03 52.02 24.31 54.35 21.99 55.7 23.34 52.08 26.95 46.99 21.86 54.29 14.56 63.21 23.48 54.97 31.71 59.54 31.71 67.78 23.48 54.29 9.99" style="fill: #c90867;"/>
      <polygon points=".01 7.3 .01 11.87 5.07 16.92 .02 21.97 .02 26.54 9.64 16.92 .01 7.3" style="fill: #c90867;"/>
      <polygon points=".93 17.75 3.29 17.75 3.29 15.85 .93 15.85 .93 13.49 .01 13.49 .02 20.12 .93 20.12 .93 17.75" style="fill: #c90867;"/>
      <polygon points="1.23 6.01 10.89 15.67 19.08 7.48 13.16 1.56 8.55 6.17 10.83 8.46 13.16 6.13 14.51 7.48 10.89 11.1 5.8 6.01 11.81 0 7.24 0 1.23 6.01" style="fill: #c90867;"/>
      <polygon points="26.59 7.62 18.96 0 14.39 0 22.02 7.62 .02 29.62 .02 31.71 2.51 31.71 26.59 7.62" style="fill: #c90867;"/>
      <polygon points="7.33 31.71 11.91 31.71 13.16 30.46 14.41 31.71 18.98 31.71 13.16 25.88 7.33 31.71" style="fill: #c90867;"/>
      <polygon points="82.32 2.59 82.32 0 79.73 0 82.32 2.59" style="fill: #c90867;"/>
      <polygon points="72.64 16.92 82.3 26.58 82.31 26.58 82.31 22.01 82.3 22.01 77.21 16.92 82.3 11.83 82.31 11.84 82.32 7.28 82.3 7.26 72.64 16.92" style="fill: #c90867;"/>
      <polygon points="81.35 13.49 81.35 15.85 78.99 15.85 78.99 17.75 81.35 17.75 81.35 20.12 82.31 20.12 82.31 13.49 82.3 13.49 81.35 13.49" style="fill: #c90867;"/>
      <polygon points="60.26 7.62 67.89 0 63.32 0 55.69 7.62 79.78 31.71 82.3 31.71 82.3 29.67 60.26 7.62" style="fill: #c90867;"/>
      <polygon points="76.48 6.01 71.39 11.1 67.77 7.48 69.12 6.13 71.45 8.46 73.73 6.17 69.12 1.56 63.2 7.48 71.39 15.67 81.05 6.01 75.04 0 70.47 0 76.48 6.01" style="fill: #c90867;"/>
      <polygon points="63.41 31.71 67.98 31.71 69.23 30.46 70.48 31.71 75.06 31.71 69.23 25.88 63.41 31.71" style="fill: #c90867;"/>
    </g>
  </g>
</svg>