<?xml version="1.0" encoding="UTF-8"?>
<svg id="Capa_2" xmlns="http://www.w3.org/2000/svg" version="1.1" viewBox="0 0 43.3 18.9">
  <!-- Generator: Adobe Illustrator 30.3.0, SVG Export Plug-In . SVG Version: 2.1.3 Build 182)  -->
  <defs>
    <style>
      .st0 {
        fill: none;
      }

      .st1 {
        fill: #444;
      }
    </style>
  </defs>
  <path class="st0" d="M26,9.9l-1.7,1.7,1.7,1.7,1.7-1.7-1.7-1.7ZM26.3,11.9v.8h-.6v-.8h-.8v-.6h.8v-.8h.6v.8h.8v.6h-.8Z"/>
  <path class="st1" d="M26,8.4l-3.1,3.1,3.1,3.1,3.2-3.1-3.2-3.1ZM24.3,11.5l1.7-1.7,1.7,1.7-1.7,1.7-1.7-1.7Z"/>
  <polygon class="st1" points="26.3 11.2 26.3 10.5 25.7 10.5 25.7 11.2 24.9 11.2 24.9 11.9 25.7 11.9 25.7 12.6 26 12.6 26.3 12.6 26.3 11.9 27.1 11.9 27.1 11.2 26.3 11.2"/>
  <polygon class="st1" points="34.6 14.5 34.6 14.5 34.6 14.6 34.6 14.5"/>
  <polygon class="st1" points="17.3 14.5 17.3 14.6 17.3 14.5 17.3 14.5"/>
  <polygon class="st1" points="17.3 14.5 17.3 14.6 21.7 18.9 25.6 15.1 22.4 11.9 19.8 14.6 21.7 16.5 23.2 15 22.5 14.3 21.7 15 21.2 14.6 22.4 13.4 24.1 15.1 21.7 17.5 18.8 14.5 26 7.4 33.2 14.5 30.2 17.5 27.9 15.1 29.5 13.4 30.7 14.6 30.3 15 29.5 14.3 28.8 15 30.3 16.5 32.2 14.6 29.5 11.9 26.4 15.1 30.2 18.9 34.6 14.6 34.6 14.5 26 5.9 17.3 14.5"/>
  <polygon class="st1" points="33 7.4 34.6 5.8 34.6 4.3 31.5 7.4 34.6 10.6 34.6 9.1 33 7.4"/>
  <polygon class="st1" points="34.3 6.3 34.3 7.1 33.6 7.1 33.6 7.7 34.3 7.7 34.3 8.5 34.6 8.5 34.6 6.3 34.3 6.3"/>
  <polygon class="st1" points="34.6 11.6 27.5 4.4 30.4 1.5 32.8 3.9 31.1 5.5 29.9 4.3 30.3 3.9 31.1 4.7 31.8 3.9 30.3 2.4 28.4 4.3 31.1 7 34.2 3.9 30.4 0 26 4.4 34.6 13 34.6 11.6"/>
  <polygon class="st1" points="17.3 4.3 17.3 5.8 17.3 5.8 19 7.4 17.3 9.1 17.3 9.1 17.3 10.6 20.5 7.4 17.3 4.3"/>
  <polygon class="st1" points="17.6 7.7 18.4 7.7 18.4 7.1 17.6 7.1 17.6 6.3 17.3 6.3 17.3 8.5 17.6 8.5 17.6 7.7"/>
  <polygon class="st1" points="21.6 0 17.7 3.9 20.9 7 23.5 4.3 21.6 2.4 20.1 3.9 20.8 4.7 21.6 3.9 22 4.3 20.9 5.5 19.2 3.9 21.6 1.5 24.5 4.4 17.3 11.6 17.3 13 26 4.4 21.6 0"/>
</svg>