<?xml version="1.0" encoding="UTF-8"?>
<svg id="Capa_2" data-name="Capa 2" xmlns="http://www.w3.org/2000/svg" viewBox="0 0 53.22 40.1">
  <g id="Capa_1-2" data-name="Capa 1">
    <path d="M16.95,22.79l9.66-9.66,9.66,9.66-9.66,9.66-9.66-9.66ZM26.61,17.7l-5.09,5.09,5.09,5.09,5.09-5.09-5.09-5.09Z" style="fill: #c90867;"/>
    <polygon points="25.66 21.72 25.66 19.35 26.61 19.35 27.56 19.35 27.56 21.72 29.93 21.72 29.93 23.62 27.56 23.62 27.56 25.98 25.66 25.98 25.66 23.62 23.3 23.62 23.3 21.72 25.66 21.72" style="fill: #c90867;"/>
    <polygon points="26.61 40.1 53.22 13.49 39.74 0 27.87 11.87 37.53 21.53 45.72 13.34 39.8 7.42 35.18 12.03 37.47 14.32 39.8 11.99 41.15 13.34 37.53 16.96 32.44 11.87 39.74 4.57 48.65 13.49 26.61 35.53 4.57 13.49 13.49 4.57 20.79 11.87 15.7 16.96 12.08 13.34 13.43 11.99 15.76 14.32 18.04 12.03 13.43 7.42 7.51 13.34 15.7 21.53 25.36 11.87 13.49 0 0 13.49 26.61 40.1" style="fill: #c90867;"/>
  </g>
</svg>