<?xml version="1.0" encoding="UTF-8"?>
<svg id="Capa_2" data-name="Capa 2" xmlns="http://www.w3.org/2000/svg" viewBox="0 0 48.07 48.39">
  <g id="Capa_1-2" data-name="Capa 1">
    <g>
      <polygon points="48.07 14.17 48.07 8.56 48.07 8.56 32.56 24.08 48.07 39.6 48.07 39.6 48.07 33.99 48.07 33.99 38.16 24.08 48.07 14.17 48.07 14.17" style="fill: #b31f29;"/>
      <polygon points="39.6 0 39.6 0 34 0 34 0 24.09 9.91 14.18 0 14.18 0 8.57 0 8.57 0 24.09 15.52 39.6 0" style="fill: #b31f29;"/>
      <polygon points="15.6 24.08 .09 8.56 .08 8.56 .08 14.17 .09 14.17 10 24.08 .09 33.99 .08 33.99 .08 39.6 .09 39.6 15.6 24.08" style="fill: #b31f29;"/>
      <polygon points="31.09 0 31.09 0 25.48 0 24.09 1.39 22.69 0 22.7 0 17.09 0 17.09 0 24.09 7 31.09 0" style="fill: #b31f29;"/>
      <polygon points="48.07 17.08 41.07 24.08 48.07 31.08 48.07 25.47 46.68 24.08 48.07 22.69 48.07 17.08" style="fill: #b31f29;"/>
      <polygon points=".09 31.08 7.08 24.08 .09 17.08 .09 22.69 1.48 24.08 .09 25.47 .09 31.08" style="fill: #b31f29;"/>
      <polygon points="48.07 2.75 48.07 0 45.21 0 24.09 21.12 2.97 0 .09 0 .09 2.77 .11 2.75 21.28 23.92 .09 45.12 0 45.21 .09 46.09 .09 48.39 2.43 48.39 4.72 46.09 24.09 26.73 43.45 46.09 45.75 48.39 48.07 48.39 48.07 46.09 48.07 45.1 26.89 23.92 48.07 2.75" style="fill: #b31f29;"/>
      <polygon points="37.68 46.09 24.09 32.5 10.49 46.09 9.97 46.62 8.25 48.39 13.8 48.39 16.1 46.09 24.09 38.11 32.07 46.09 34.37 48.39 39.88 48.39 38.2 46.62 37.68 46.09" style="fill: #b31f29;"/>
      <polygon points="29.16 46.09 24.08 41.01 19.01 46.09 18.48 46.62 16.76 48.39 22.32 48.39 24.08 46.62 25.85 48.39 31.37 48.39 31.43 48.32 29.68 46.62 29.16 46.09" style="fill: #b31f29;"/>
    </g>
  </g>
</svg>