<?xml version="1.0" encoding="UTF-8"?>
<svg id="Capa_2" data-name="Capa 2" xmlns="http://www.w3.org/2000/svg" viewBox="0 0 22.02 20.4">
  <g id="Capa_2-2" data-name="Capa 2">
    <g id="Capa_1-2" data-name="Capa 1-2">
      <g>
        <path d="M6.17,10.21l4.9,4.9,4.9-4.9-4.9-4.9s-4.9,4.9-4.9,4.9ZM11.98,7.02v2.27h2.27v1.83h-2.27v2.27h-1.83v-2.27h-2.27v-1.83h2.27v-2.27s1.83,0,1.83,0Z" style="fill: none;"/>
        <path d="M11.06,19.5L1.77,10.21,11.06.91l9.29,9.29-9.29,9.29h0Z" style="fill: none;"/>
        <path d="M1.77,10.21l9.29,9.29,9.29-9.29L11.06.91,1.77,10.21ZM11.06,15.1l-4.9-4.9,4.9-4.9,4.9,4.9s-4.9,4.9-4.9,4.9Z"/>
        <polygon points="10.15 9.29 7.88 9.29 7.88 11.12 10.15 11.12 10.15 13.39 11.98 13.39 11.98 11.12 14.25 11.12 14.25 9.29 11.98 9.29 11.98 7.02 11.07 7.02 10.15 7.02 10.15 9.29"/>
        <polygon points="0 4.89 0 9.29 0 9.29 9.3 0 4.9 0 0 4.9 0 4.89"/>
        <polygon points="0 3.19 .92 3.19 .92 .91 3.19 .91 3.19 0 0 0 0 3.19"/>
        <polygon points="0 11.12 0 15.52 0 15.51 4.9 20.4 9.29 20.4 0 11.12 0 11.12"/>
        <polygon points="3.2 20.4 3.2 19.5 .92 19.5 .92 17.22 0 17.22 0 17.22 0 20.4 3.2 20.4"/>
        <polygon points="12.74 0 22.02 9.28 22.02 4.89 17.13 0 12.74 0"/>
        <polygon points="18.84 0 18.84 .91 21.11 .91 21.11 3.19 22.02 3.19 22.02 0 18.84 0"/>
        <polygon points="17.14 20.4 22.02 15.52 22.02 11.13 12.75 20.4 17.14 20.4"/>
        <polygon points="21.11 19.5 18.84 19.5 18.84 20.4 22.02 20.4 22.02 17.22 21.11 17.22 21.11 19.5"/>
      </g>
    </g>
  </g>
</svg>