<?xml version="1.0" encoding="UTF-8"?>
<svg id="Capa_2" data-name="Capa 2" xmlns="http://www.w3.org/2000/svg" viewBox="0 0 92.6 115.04">
  <g id="Capa_1-2" data-name="Capa 1">
    <path d="M92.6,46.3C92.6,20.77,71.83,0,46.3,0S0,20.77,0,46.3c0,1.16.04,2.34.13,3.49.29,3.89,1.08,7.65,2.28,11.21,7.2,23.79,43.89,54.05,43.89,54.05,0,0,40.21-31.21,45.38-59.36l-.05.03c.63-3.04.96-6.19.96-9.41ZM46.3,16c16.71,0,30.3,13.59,30.3,30.3s-13.59,30.3-30.3,30.3c-15.77,0-29.04-12.3-30.21-28-.06-.76-.08-1.53-.08-2.3,0-16.71,13.59-30.3,30.3-30.3Z" style="fill: #1d1d1b;"/>
  </g>
</svg>