<?xml version="1.0" encoding="UTF-8"?>
<svg id="Capa_2" data-name="Capa 2" xmlns="http://www.w3.org/2000/svg" viewBox="0 0 78.66 36.41">
  <g id="Texto">
    <g>
      <rect x="13.76" y="6.37" width="15.56" height="3.41" transform="translate(.6 17.6) rotate(-45)" style="fill: #fff;"/>
      <polygon points="16.13 30.29 4.83 18.99 21.4 2.41 18.99 0 0 18.99 13.72 32.71 16.13 30.29" style="fill: #fff;"/>
      <polygon points="29.94 5.48 18.94 16.48 21.36 18.89 29.94 10.31 29.94 5.48" style="fill: #fff;"/>
      <rect x="55.41" y=".3" width="3.41" height="15.56" transform="translate(11.02 42.75) rotate(-45)" style="fill: #fff;"/>
      <polygon points="62.53 30.29 73.83 18.99 57.25 2.41 59.67 0 78.66 18.99 64.94 32.71 62.53 30.29" style="fill: #fff;"/>
      <polygon points="48.71 5.48 59.71 16.48 57.3 18.89 48.71 10.31 48.71 5.48" style="fill: #fff;"/>
      <path d="M39.33,32.24l-5.95-5.95,5.95-5.95,5.95,5.95-5.95,5.95ZM36.2,26.29l3.14,3.14,3.14-3.14-3.14-3.14-3.14,3.14Z" style="fill: #fff;"/>
      <polygon points="39.92 25.64 39.92 24.18 39.33 24.18 38.75 24.18 38.75 25.64 37.29 25.64 37.29 26.81 38.75 26.81 38.75 28.26 39.92 28.26 39.92 26.81 41.37 26.81 41.37 25.64 39.92 25.64" style="fill: #fff;"/>
      <polygon points="39.34 36.41 22.95 20.02 31.26 11.71 38.57 19.02 32.62 24.97 27.57 19.93 31.22 16.28 34.06 19.12 32.65 20.53 31.22 19.1 30.39 19.93 32.62 22.16 35.75 19.02 31.26 14.53 25.76 20.02 39.34 33.59 52.91 20.02 47.42 14.53 42.93 19.02 46.06 22.16 48.29 19.93 47.46 19.1 46.03 20.53 44.62 19.12 47.46 16.28 51.11 19.93 46.06 24.97 40.11 19.02 47.42 11.71 55.73 20.02 39.34 36.41" style="fill: #fff;"/>
    </g>
  </g>
</svg>