<?xml version="1.0" encoding="UTF-8"?>
<svg id="Capa_2" data-name="Capa 2" xmlns="http://www.w3.org/2000/svg" viewBox="0 0 78.66 36.96">
  <g id="Texto">
    <g>
      <rect x="13.76" y="6.37" width="15.56" height="3.41" transform="translate(.6 17.6) rotate(-45)" style="fill: #009483;"/>
      <polygon points="16.13 30.29 4.83 18.99 21.4 2.41 18.99 0 0 18.99 13.72 32.71 16.13 30.29" style="fill: #009483;"/>
      <polygon points="29.94 5.48 18.94 16.48 21.36 18.89 29.94 10.31 29.94 5.48" style="fill: #009483;"/>
      <rect x="55.41" y=".3" width="3.41" height="15.56" transform="translate(11.02 42.75) rotate(-45)" style="fill: #009483;"/>
      <polygon points="62.53 30.29 73.83 18.99 57.25 2.41 59.67 0 78.66 18.99 64.94 32.71 62.53 30.29" style="fill: #009483;"/>
      <polygon points="48.71 5.48 59.71 16.48 57.3 18.89 48.71 10.31 48.71 5.48" style="fill: #009483;"/>
      <path d="M39.33,32.24l-5.95-5.95,5.95-5.95,5.95,5.95-5.95,5.95ZM36.2,26.29l3.14,3.14,3.14-3.14-3.14-3.14-3.14,3.14Z" style="fill: #009483;"/>
      <polygon points="39.92 25.64 39.92 24.18 39.33 24.18 38.75 24.18 38.75 25.64 37.29 25.64 37.29 26.81 38.75 26.81 38.75 28.26 39.92 28.26 39.92 26.81 41.37 26.81 41.37 25.64 39.92 25.64" style="fill: #009483;"/>
      <polygon points="39.33 36.96 22.94 20.57 31.25 12.26 38.56 19.57 32.61 25.52 27.56 20.48 31.21 16.83 34.05 19.67 32.64 21.08 31.21 19.65 30.38 20.48 32.61 22.71 35.74 19.57 31.25 15.08 25.76 20.57 39.33 34.14 52.91 20.57 47.41 15.08 42.92 19.57 46.05 22.71 48.28 20.48 47.45 19.65 46.02 21.08 44.61 19.67 47.45 16.83 51.1 20.48 46.05 25.52 40.1 19.57 47.41 12.26 55.72 20.57 39.33 36.96" style="fill: #c61f68;"/>
    </g>
  </g>
</svg>