<?xml version="1.0" encoding="UTF-8"?>
<svg xmlns="http://www.w3.org/2000/svg" viewBox="0 0 150.59 84.81">
  <g id="Capa_3" data-name="Capa 3">
    <rect x="0" y="0" width="150.6" height="84.81"/>
  </g>
  <g id="Capa_2" data-name="Capa 2">
    <g>
      <polygon points="62.4 .31 62.4 .31 62.47 .37 62.4 .31" style="fill: none;"/>
      <path d="M90.89,42.4l-15.19-14.77-15.19,14.77,15.19,14.78,15.19-14.78ZM66.66,42.4l9.04-8.88,9.04,8.88h.01s-.01,0-.01,0l-9.04,8.88-9.04-8.88h0Z" style="fill: none;"/>
      <polygon points="80.49 42.4 75.7 37.7 70.91 42.4 75.7 47.11 80.49 42.4" style="fill: none;"/>
      <polygon points="88.74 0 88.82 .09 88.74 0 88.5 .24 88.5 .24 88.74 0" style="fill: none;"/>
      <polygon points="88.6 .34 88.68 .43 88.68 .43 88.6 .34" style="fill: none;"/>
      <polygon points="62.82 .25 62.59 .49 62.59 .49 62.83 .25 62.72 .15 62.82 .25" style="fill: none;"/>
      <polygon points="150.59 75.93 142.05 84.31 141.54 84.81 145.8 84.81 150.59 80.11 150.59 77.53 150.59 75.93" style="fill: #626260;"/>
      <polygon points="150.59 69.54 150.59 65.88 131.64 84.31 131.12 84.81 135.4 84.81 150.59 70.04 150.59 69.54" style="fill: #525250;"/>
      <line x1="149.81" y1="56.32" x2="149.14" y2="55.64" style="fill: none; stroke: #626260; stroke-linecap: round; stroke-linejoin: round;"/>
      <polygon points="150.59 59.7 150.59 57.13 150.59 55.57 149.81 56.32 138.67 67.03 127.91 56.27 137.55 46.63 144.05 53.13 140.02 57.17 137.76 54.91 135.65 57.02 140.02 61.38 148.27 53.13 137.55 42.41 123.69 56.27 136.52 69.09 123.27 81.83 122.22 81.83 111.36 71.39 120.98 61.77 127.49 68.28 123.45 72.31 121.19 70.06 119.09 72.17 123.45 76.53 131.7 68.28 120.98 57.56 107.11 71.43 120.95 84.74 120.87 84.81 124.64 84.81 124.55 84.73 150.59 59.7" style="fill: #31312f;"/>
      <polygon points="4.67 84.31 8.3 84.31 0 76.16 0 80.34 4.67 84.93 8.93 84.93 8.3 84.31 4.67 84.31" style="fill: #626260;"/>
      <polygon points="15.07 84.31 18.82 84.31 0 66 0 70.16 15.07 84.82 19.35 84.82 18.82 84.31 15.07 84.31" style="fill: #525250;"/>
      <polygon points="29.51 57.63 18.79 68.35 27.04 76.6 31.4 72.24 29.29 70.13 27.04 72.38 23 68.35 29.51 61.84 39.15 71.49 28.82 81.82 27.66 81.83 14.22 68.91 26.8 56.34 12.94 42.48 2.22 53.2 10.47 61.45 14.83 57.09 12.73 54.98 10.47 57.24 6.43 53.2 12.94 46.7 22.58 56.34 12.07 66.84 .12 55.35 0 55.47 0 59.6 .12 59.48 26.46 84.8 26.43 84.82 30.09 84.82 30.06 84.79 43.36 71.49 29.51 57.63" style="fill: #31312f;"/>
      <path d="M84.74,42.41h.01-.01s-9.04-8.89-9.04-8.89l-9.04,8.88h0s9.04,8.89,9.04,8.89l9.04-8.88ZM75.7,37.7l4.79,4.7-4.79,4.71-4.79-4.71,4.79-4.7Z" style="fill: #494947;"/>
      <path d="M95.16,42.41h0,0s-19.46-18.94-19.46-18.94l-19.46,18.93h0s19.46,18.94,19.46,18.94l19.46-18.93ZM75.7,27.63l15.19,14.77-15.19,14.78-15.19-14.78,15.19-14.77Z" style="fill: #41423f;"/>
      <g>
        <polygon points="88.68 .43 88.68 .43 88.6 .34 88.68 .43" style="fill: none;"/>
        <polygon points="62.4 .31 62.4 .31 62.47 .37 62.4 .31" style="fill: none;"/>
        <polygon points="62.82 .25 62.59 .49 62.59 .49 62.83 .25 62.72 .15 62.82 .25" style="fill: none;"/>
        <polygon points="75.46 17.07 49.13 42.42 75.46 67.74 101.81 42.42 105.11 42.4 101.81 42.39 75.46 17.07" style="fill: none;"/>
        <path d="M119.18,29.02l-13.88-13.87-10.71,10.72,8.25,8.25,4.36-4.36-2.11-2.11-2.25,2.25-4.04-4.03,6.5-6.51,9.62,9.62-10.86,10.44h-1.05l-13.24-12.74,12.82-12.82L88.92.19h0s0,0,0,0l.19-.19h-.37l.08.09-.08-.08-.24.24h0s-10.48,10.48-10.48,10.48l8.25,8.25,4.36-4.36-2.11-2.11-2.25,2.26-4.04-4.04,6.51-6.5,9.64,9.64-10.76,10.75-12.16-11.68-11.95,11.5-10.51-10.51,9.64-9.64,6.51,6.5-4.04,4.04-2.25-2.26-2.11,2.11,4.36,4.36,8.26-8.25L62.83.25l-.24.24h0s.24-.24.24-.24l-.1-.1.11.1.25-.25h-.99l.31.31h0s.07.06.07.06l-.07-.06-13.61,13.61,12.57,12.57-13.43,12.92h-1.16s-10.34-10.34-10.34-10.34l9.65-9.65,6.5,6.51-4.04,4.04-2.25-2.26-2.11,2.11,4.36,4.36,8.26-8.25-10.72-10.72-13.86,13.86,13.3,13.37-13.3,13.3,13.85,13.86,10.73-10.72-8.26-8.25-4.36,4.36,2.11,2.11,2.25-2.26,4.04,4.04-6.51,6.5-9.64-9.64,10.34-10.33h1.16s13.43,12.91,13.43,12.91l-12.57,12.57,13.43,13.42.18.19.18-.18h0s-.18.18-.18.18l.24.24.18-.18-.03-.03.03.03.24-.25,10.29-10.28-8.25-8.26-4.36,4.37,2.1,2.1,2.26-2.25,4.04,4.04-6.51,6.5-9.64-9.64,10.51-10.51,11.95,11.5,12.16-11.69,10.76,10.76-9.64,9.64-6.51-6.5,4.04-4.04,2.25,2.26,2.11-2.11-4.36-4.36-8.25,8.25,10.23,10.22.25.25h0s.24.24.24.24l.18-.18h0s.31-.31.31-.31l13.36-13.36-12.83-12.82,13.25-12.74h1.05l10.86,10.44-9.62,9.62-6.5-6.51,4.04-4.04,2.25,2.26,2.11-2.11-4.36-4.36-8.25,8.25,10.71,10.72,13.88-13.87-13.92-13.39,13.92-13.38ZM88.68.43l-.08-.09.08.08h0ZM101.81,42.42l-26.35,25.32-26.33-25.32,26.33-25.35,26.35,25.32h3.3s-3.3.03-3.3.03Z" style="fill: #31312f;"/>
      </g>
      <polygon points="22.16 28.38 12.52 38.02 6.01 31.52 10.05 27.48 12.31 29.73 14.42 27.63 10.05 23.27 1.8 31.52 12.52 42.23 26.38 28.38 13.8 15.81 27.24 2.89 28.4 2.9 38.73 13.23 29.09 22.88 22.58 16.37 26.62 12.33 28.87 14.59 30.98 12.48 26.62 8.12 18.37 16.37 29.09 27.09 42.94 13.23 29.72 0 25.95 0 0 24.95 0 29.08 11.65 17.87 22.16 28.38" style="fill: #31312f;"/>
      <polygon points="4.8 0 0 4.71 0 8.88 0 8.89 9.05 0 4.8 0" style="fill: #626260;"/>
      <polygon points="19.46 0 15.2 0 0 14.78 0 18.93 0 18.94 19.47 0 19.46 0" style="fill: #525250;"/>
      <polygon points="150.59 4.71 150.59 4.7 145.8 0 145.79 0 141.54 0 150.59 8.88 150.59 4.71" style="fill: #626260;"/>
      <polygon points="150.59 14.78 135.4 0 135.39 0 131.12 0 150.59 18.94 150.59 14.78" style="fill: #525250;"/>
      <polygon points="88.25 0 88.5 .24 88.74 0 88.25 0" style="fill: #626260;"/>
      <polygon points="121.21 27.15 131.93 16.43 123.68 8.18 123.29 8.56 119.32 12.54 121.04 14.27 121.43 14.65 123.29 12.77 123.68 12.39 127.72 16.43 121.21 22.93 120.82 22.55 111.59 13.32 122.45 2.88 122.73 2.88 123.5 2.88 136.75 15.62 123.92 28.44 137.39 41.91 137.47 41.99 137.78 42.29 137.85 42.21 148.5 31.58 140.25 23.33 139.86 23.71 135.89 27.69 137.6 29.42 137.99 29.8 139.86 27.92 140.25 27.54 144.28 31.58 137.78 38.08 137.39 37.7 128.14 28.44 138.52 18.06 138.9 17.68 150.59 28.92 150.59 28.92 150.59 24.79 150.59 24.79 124.8 0 124.03 0 121.15 0 107.34 13.27 120.82 26.77 121.21 27.15" style="fill: #31312f;"/>
    </g>
  </g>
</svg>