<?xml version="1.0" encoding="UTF-8"?>
<svg id="Capa_2" data-name="Capa 2" xmlns="http://www.w3.org/2000/svg" viewBox="0 0 82.33 47.63">
  <g id="Capa_1-2" data-name="Capa 1">
    <g>
      <polygon points="27.98 0 27.87 .11 28.09 .11 27.98 0" style="fill: none;"/>
      <polygon points="54.24 .11 54.46 .11 54.35 0 54.24 .11" style="fill: none;"/>
      <polygon points="69.17 47.61 69.15 47.63 69.2 47.63 69.17 47.61" style="fill: none;"/>
      <polygon points="81.1 47.48 80.96 47.63 82.3 47.63 82.3 43.96 55.69 17.35 69.18 3.87 81.05 15.74 71.39 25.4 63.2 17.21 69.12 11.29 73.73 15.9 71.45 18.19 69.12 15.86 67.77 17.21 71.39 20.83 76.48 15.74 69.18 8.44 60.26 17.35 82.3 39.4 82.31 36.31 82.3 36.31 72.64 26.65 82.3 16.99 82.32 17.01 82.32 12.32 70.1 .11 66.39 .11 67.78 1.5 41.16 28.11 14.55 1.5 15.94 .11 12.22 .11 0 12.32 .01 17.03 9.64 26.65 .02 36.27 .02 39.35 22.02 17.35 13.1 8.44 5.8 15.74 10.89 20.83 14.51 17.21 13.16 15.86 10.83 18.19 8.55 15.9 13.16 11.29 19.08 17.21 10.89 25.4 1.23 15.74 13.1 3.87 26.59 17.35 .03 43.92 .03 47.63 1.43 47.63 1.29 47.48 13.16 35.61 25.17 47.63 28.97 47.63 14.55 33.21 28.04 19.72 39.91 31.59 30.25 41.25 22.06 33.07 27.98 27.14 32.59 31.76 30.31 34.04 27.98 31.72 26.63 33.07 30.25 36.68 35.34 31.59 28.04 24.29 19.12 33.21 33.54 47.63 36.63 47.63 31.5 42.51 41.16 32.85 50.83 42.51 45.7 47.63 48.78 47.63 63.21 33.21 54.29 24.29 46.99 31.59 52.08 36.68 55.7 33.07 54.35 31.72 52.02 34.04 49.74 31.76 54.35 27.14 60.27 33.07 52.08 41.25 42.42 31.59 54.29 19.72 67.78 33.21 53.35 47.63 57.22 47.63 69.23 35.61 81.1 47.48" style="fill: none;"/>
      <polygon points="73.77 47.63 76.39 47.63 76.53 47.48 69.23 40.19 61.79 47.63 64.58 47.63 69.17 43.04 73.77 47.63" style="fill: none;"/>
      <polygon points="13.22 47.61 13.19 47.63 13.24 47.63 13.22 47.61" style="fill: none;"/>
      <polygon points=".93 23.22 .93 25.58 3.29 25.58 3.29 27.48 .93 27.48 .93 29.85 .02 29.85 .02 31.7 5.07 26.65 .01 21.6 .01 23.22 .93 23.22" style="fill: none;"/>
      <polygon points="81.35 29.85 81.35 27.48 78.99 27.48 78.99 25.58 81.35 25.58 81.35 23.22 82.3 23.22 82.31 23.22 82.31 21.57 82.3 21.56 77.21 26.65 82.3 31.74 82.31 31.74 82.31 29.85 81.35 29.85" style="fill: none;"/>
      <path d="M22.06,1.35l1.24-1.24h-2.79l-1.39,1.39,22.04,22.04L63.21,1.5l-1.39-1.39h-2.79l1.24,1.24-8.19,8.19L42.65.11h-2.97l-9.43,9.43L22.06,1.35ZM41.16,1.13l9.66,9.66-9.66,9.66-9.66-9.66L41.16,1.13Z" style="fill: none;"/>
      <path d="M46.25,10.79l-5.09-5.09-5.09,5.09,5.09,5.09,5.09-5.09ZM37.85,11.63v-1.9h2.36v-2.36h1.9v2.36h2.36v1.9h-2.36v2.36h-1.9v-2.36h-2.36Z" style="fill: none;"/>
      <polygon points="5.86 47.48 6 47.63 8.62 47.63 13.22 43.04 17.81 47.63 20.6 47.63 13.16 40.19 5.86 47.48" style="fill: none;"/>
      <polygon points="4.57 .11 0 4.68 0 7.76 7.65 .11 4.57 .11" style="fill: none;"/>
      <path d="M46.25,42.51l-5.09-5.09-5.09,5.09,5.09,5.09,5.09-5.09ZM37.85,43.34v-1.9h2.36v-2.36h1.9v2.36h2.36v1.9h-2.36v2.36h-1.9v-2.36h-2.36Z" style="fill: none;"/>
      <polygon points="52.02 2.33 49.8 .11 47.22 .11 52.08 4.97 55.7 1.35 54.46 .11 54.24 .11 52.02 2.33" style="fill: none;"/>
      <polygon points="30.31 2.33 28.09 .11 27.87 .11 26.63 1.35 30.25 4.97 35.11 .11 32.53 .11 30.31 2.33" style="fill: none;"/>
      <polygon points="82.33 4.68 77.76 .11 74.68 .11 82.32 7.76 82.33 4.68" style="fill: none;"/>
      <polygon points="0 .11 0 4.68 4.57 .11 0 .11" style="fill: #c90867;"/>
      <polygon points="7.65 .11 0 7.76 0 12.32 12.22 .11 7.65 .11" style="fill: #c90867;"/>
      <path d="M50.83,10.79L41.16,1.13l-9.66,9.66,9.66,9.66,9.66-9.66ZM41.16,5.7l5.09,5.09-5.09,5.09-5.09-5.09,5.09-5.09Z" style="fill: #009885;"/>
      <polygon points="42.11 13.99 42.11 11.63 44.48 11.63 44.48 9.73 42.11 9.73 42.11 7.36 41.16 7.36 40.21 7.36 40.21 9.73 37.85 9.73 37.85 11.63 40.21 11.63 40.21 13.99 42.11 13.99" style="fill: #009885;"/>
      <polygon points="60.27 1.35 59.03 .11 54.46 .11 55.7 1.35 52.08 4.97 47.22 .11 42.65 .11 52.08 9.54 60.27 1.35" style="fill: #c90867;"/>
      <polygon points="30.25 4.97 26.63 1.35 27.87 .11 23.3 .11 22.06 1.35 30.25 9.54 39.68 .11 35.11 .11 30.25 4.97" style="fill: #c90867;"/>
      <polygon points="41.16 28.11 67.78 1.5 66.39 .11 61.82 .11 63.21 1.5 41.16 23.54 19.12 1.5 20.51 .11 15.94 .11 14.55 1.5 41.16 28.11" style="fill: #c90867;"/>
      <polygon points="54.24 .11 49.8 .11 52.02 2.33 54.24 .11" style="fill: #c90867;"/>
      <polygon points="30.31 2.33 32.53 .11 28.09 .11 30.31 2.33" style="fill: #c90867;"/>
      <path d="M50.83,42.51l-9.66-9.66-9.66,9.66,5.12,5.12h9.08l5.12-5.12ZM41.16,37.42l5.09,5.09-5.09,5.09-5.09-5.09,5.09-5.09Z" style="fill: #009885;"/>
      <polygon points="42.11 45.71 42.11 43.34 44.48 43.34 44.48 41.44 42.11 41.44 42.11 39.08 41.16 39.08 40.21 39.08 40.21 41.44 37.85 41.44 37.85 43.34 40.21 43.34 40.21 45.71 42.11 45.71" style="fill: #009885;"/>
      <polygon points="19.12 33.21 28.04 24.29 35.34 31.59 30.25 36.68 26.63 33.07 27.98 31.72 30.31 34.04 32.59 31.76 27.98 27.14 22.06 33.07 30.25 41.25 39.91 31.59 28.04 19.72 14.55 33.21 28.97 47.63 33.54 47.63 19.12 33.21" style="fill: #c90867;"/>
      <polygon points="54.29 19.72 42.42 31.59 52.08 41.25 60.27 33.07 54.35 27.14 49.74 31.76 52.02 34.04 54.35 31.72 55.7 33.07 52.08 36.68 46.99 31.59 54.29 24.29 63.21 33.21 48.78 47.63 53.35 47.63 67.78 33.21 54.29 19.72" style="fill: #c90867;"/>
      <polygon points=".01 17.03 .01 21.6 5.07 26.65 .02 31.7 .02 36.27 9.64 26.65 .01 17.03" style="fill: #009885;"/>
      <polygon points=".93 27.48 3.29 27.48 3.29 25.58 .93 25.58 .93 23.22 .01 23.22 .02 29.85 .93 29.85 .93 27.48" style="fill: #009885;"/>
      <polygon points="13.1 3.87 1.23 15.74 10.89 25.4 19.08 17.21 13.16 11.29 8.55 15.9 10.83 18.19 13.16 15.86 14.51 17.21 10.89 20.83 5.8 15.74 13.1 8.44 22.02 17.35 .02 39.35 .03 43.92 26.59 17.35 13.1 3.87" style="fill: #c90867;"/>
      <polygon points="1.29 47.48 1.43 47.63 6 47.63 5.86 47.48 13.16 40.19 20.6 47.63 25.17 47.63 13.16 35.61 1.29 47.48" style="fill: #c90867;"/>
      <polygon points="8.62 47.63 13.19 47.63 13.22 47.61 13.24 47.63 17.81 47.63 13.22 43.04 8.62 47.63" style="fill: #c90867;"/>
      <polygon points="82.33 .11 77.76 .11 82.33 4.68 82.33 .11" style="fill: #c90867;"/>
      <polygon points="82.32 7.76 74.68 .11 70.1 .11 82.32 12.32 82.32 7.76" style="fill: #c90867;"/>
      <polygon points="72.64 26.65 82.3 36.31 82.31 36.31 82.31 31.74 82.3 31.74 77.21 26.65 82.3 21.56 82.31 21.57 82.32 17.01 82.3 16.99 72.64 26.65" style="fill: #009885;"/>
      <polygon points="81.35 23.22 81.35 25.58 78.99 25.58 78.99 27.48 81.35 27.48 81.35 29.85 82.31 29.85 82.31 23.22 82.3 23.22 81.35 23.22" style="fill: #009885;"/>
      <polygon points="69.18 8.44 76.48 15.74 71.39 20.83 67.77 17.21 69.12 15.86 71.45 18.19 73.73 15.9 69.12 11.29 63.2 17.21 71.39 25.4 81.05 15.74 69.18 3.87 55.69 17.35 82.3 43.96 82.3 39.4 60.26 17.35 69.18 8.44" style="fill: #c90867;"/>
      <polygon points="69.23 40.19 76.53 47.48 76.39 47.63 80.96 47.63 81.1 47.48 69.23 35.61 57.22 47.63 61.79 47.63 69.23 40.19" style="fill: #c90867;"/>
      <polygon points="69.17 47.61 69.2 47.63 73.77 47.63 69.17 43.04 64.58 47.63 69.15 47.63 69.17 47.61" style="fill: #c90867;"/>
    </g>
  </g>
</svg>