<?xml version="1.0" encoding="UTF-8"?>
<svg id="Capa_2" data-name="Capa 2" xmlns="http://www.w3.org/2000/svg" viewBox="0 0 150.59 84.81">
  <g id="Capa_1-2" data-name="Capa 1">
    <g>
      <path d="M90.89,42.4l-15.19-14.78-15.19,14.78,15.19,14.78,15.19-14.78ZM66.66,42.4h0l9.04-8.88,9.04,8.88h0,0s0,0,0,0h0l-9.04,8.88-9.04-8.88h0,0s0,0,0,0Z" style="fill: none;"/>
      <polygon points="78.02 74.09 86.27 65.84 90.63 70.2 88.52 72.31 86.27 70.05 82.23 74.09 88.74 80.59 98.38 70.95 87.62 60.19 75.46 71.88 63.51 60.38 53 70.89 62.64 80.53 69.15 74.03 65.11 69.99 62.85 72.24 60.75 70.14 65.11 65.77 73.36 74.03 63.07 84.31 88.25 84.31 78.02 74.09" style="fill: none;"/>
      <path d="M61.36,58.32l-13.44-12.92h-1.16s-10.33,10.34-10.33,10.34l9.64,9.64,6.51-6.51-4.04-4.04-2.25,2.25-2.11-2.11,4.36-4.36,8.25,8.25-10.72,10.72-13.85-13.86,13.31-13.31,3.59-.02,26.34,25.33,26.34-25.32,3.3-.02-3.3-.02-26.34-25.32-26.34,25.33-3.59-.02-13.31-13.31,13.85-13.86,10.72,10.72-8.25,8.25-4.36-4.36,2.11-2.11,2.25,2.25,4.04-4.04-6.51-6.51-9.64,9.64,10.33,10.33h1.16s13.44-12.91,13.44-12.91l-12.57-12.57L62.4.31,62.09,0H29.72l13.23,13.23-13.85,13.86-10.72-10.72,8.25-8.25,4.36,4.36-2.11,2.11-2.25-2.25-4.04,4.04,6.51,6.51,9.64-9.64L28.4,2.9h-1.16s-13.44,12.91-13.44,12.91l12.57,12.57-13.86,13.85L1.8,31.52l8.25-8.25,4.36,4.36-2.11,2.11-2.26-2.26-4.04,4.04,6.51,6.5,9.64-9.64-10.51-10.51L0,29.08v25.88l.12-.12,11.95,11.49,10.51-10.51-9.64-9.64-6.51,6.5,4.04,4.04,2.26-2.26,2.11,2.11-4.36,4.36-8.25-8.25,10.72-10.72,13.86,13.85-12.57,12.57,13.44,12.92h1.16s10.33-10.34,10.33-10.34l-9.64-9.64-6.51,6.51,4.04,4.04,2.25-2.25,2.11,2.11-4.36,4.36-8.25-8.25,10.72-10.72,13.85,13.86-13.3,13.31.03.03h32.12l-13.43-13.42,12.57-12.57ZM75.7,23.47l19.46,18.93h0,0s0,0,0,0h0l-19.46,18.93-19.46-18.93h0,0s0,0,0,0h0l19.46-18.93Z" style="fill: none;"/>
      <polygon points="107.11 70.93 120.98 57.06 131.7 67.78 123.45 76.03 119.09 71.67 121.19 69.56 123.45 71.81 127.49 67.78 120.98 61.27 111.36 70.89 122.22 81.33 123.27 81.33 136.52 68.59 123.69 55.77 137.55 41.91 148.27 52.63 140.02 60.88 135.65 56.52 137.76 54.41 140.02 56.67 144.05 52.63 137.55 46.13 127.91 55.77 138.67 66.53 150.59 55.07 150.59 29.07 150.28 29.36 138.13 17.68 127.37 28.44 137.01 38.08 143.51 31.58 139.48 27.54 137.22 29.8 135.12 27.69 139.48 23.33 147.73 31.58 137.01 42.29 123.15 28.44 135.98 15.62 122.73 2.88 121.68 2.88 110.82 13.32 120.44 22.93 126.95 16.43 122.91 12.39 120.66 14.65 118.55 12.54 122.91 8.18 131.16 16.43 120.44 27.15 106.57 13.27 120.38 0 89.11 0 88.92 .19 102.59 13.86 89.77 26.68 103.01 39.42 104.06 39.42 114.92 28.98 105.3 19.36 98.8 25.87 102.84 29.9 105.09 27.65 107.2 29.76 102.84 34.12 94.59 25.87 105.3 15.15 119.18 29.02 105.26 42.4 119.18 55.79 105.3 69.66 94.59 58.94 102.84 50.69 107.2 55.05 105.09 57.16 102.84 54.9 98.8 58.94 105.3 65.45 114.92 55.83 104.06 45.39 103.01 45.39 89.76 58.13 102.59 70.95 89.23 84.31 120.87 84.31 120.95 84.24 107.11 70.93" style="fill: none;"/>
      <polygon points="80.49 42.4 75.7 37.7 70.91 42.4 75.7 47.11 80.49 42.4" style="fill: none;"/>
      <polygon points="65.11 19.03 60.75 14.67 62.86 12.56 65.11 14.82 69.15 10.78 62.64 4.28 53 13.92 63.51 24.43 75.46 12.93 87.62 24.61 98.38 13.86 88.74 4.22 82.23 10.72 86.27 14.76 88.52 12.5 90.63 14.61 86.27 18.97 78.02 10.72 88.5 .24 88.25 0 63.08 0 62.83 .25 73.37 10.78 65.11 19.03" style="fill: none;"/>
      <rect x="150.59" y="29.07" width="0" height="26" transform="translate(13.37 117.03) rotate(-44.26)" style="fill: none;"/>
      <polygon points="150.59 75.43 150.59 69.54 150.59 69.54 150.59 69.54 150.59 75.43 150.59 75.43" style="fill: none;"/>
      <polygon points="150.59 69.54 135.4 84.31 141.54 84.31 150.59 75.43 150.59 69.54" style="fill: none;"/>
      <polygon points="150.59 65.38 150.59 59.2 124.55 84.23 124.64 84.31 131.12 84.31 150.59 65.38" style="fill: none;"/>
      <rect x="150.59" y="79.61" width="0" height="4.7" style="fill: none;"/>
      <polygon points="145.8 84.31 150.59 84.31 150.59 79.61 145.8 84.31" style="fill: none;"/>
      <polygon points="150.59 65.38 150.59 65.38 150.59 59.2 150.59 59.2 150.59 65.38 150.59 65.38" style="fill: none;"/>
      <rect x="141.54" y="84.31" width="4.25" height="0" style="fill: #626260;"/>
      <rect x="148.5" y="77.52" width="4.18" height="0" transform="translate(-10.03 131.28) rotate(-45.74)" style="fill: #626260;"/>
      <polygon points="150.59 75.43 141.54 84.31 145.8 84.31 150.59 79.61 150.59 75.43" style="fill: #626260;"/>
      <rect x="131.12" y="84.31" width="4.27" height="0" style="fill: #626260;"/>
      <polygon points="150.59 65.38 150.59 69.54 150.59 69.54 150.59 69.54 150.59 65.38 150.59 65.38 150.59 65.38" style="fill: #626260;"/>
      <polygon points="150.59 65.38 131.12 84.31 135.4 84.31 150.59 69.54 150.59 65.38" style="fill: #626260;"/>
      <rect x="150.59" y="55.07" width="0" height="4.13" transform="translate(2.86 121.3) rotate(-44.26)" style="fill: #626260;"/>
      <polygon points="124.55 84.23 150.59 59.2 150.59 55.07 138.67 66.53 127.91 55.77 137.55 46.13 144.05 52.63 140.02 56.67 137.76 54.41 135.65 56.52 140.02 60.88 148.27 52.63 137.55 41.91 123.69 55.77 136.52 68.59 123.27 81.33 122.22 81.33 111.36 70.89 120.98 61.27 127.49 67.78 123.45 71.81 121.19 69.56 119.09 71.67 123.45 76.03 131.7 67.78 120.98 57.06 107.11 70.93 120.95 84.24 120.87 84.31 124.64 84.31 124.55 84.23" style="fill: #626260;"/>
      <polygon points="19.35 84.31 15.07 84.31 0 69.65 0 75.54 8.93 84.31 4.67 84.31 0 79.72 0 84.31 4.67 84.31 4.67 84.31 8.93 84.31 8.93 84.31 15.07 84.31 15.07 84.31 19.35 84.31 19.35 84.31 26.43 84.31 26.46 84.29 .12 58.97 0 59.09 0 65.49 19.35 84.31" style="fill: none;"/>
      <polygon points="8.93 84.31 0 75.54 0 79.72 4.67 84.31 8.93 84.31" style="fill: #626260;"/>
      <polygon points="19.35 84.31 0 65.49 0 69.65 15.07 84.31 19.35 84.31" style="fill: #626260;"/>
      <polygon points="43.36 70.98 29.51 57.12 18.79 67.84 27.04 76.09 31.4 71.73 29.29 69.62 27.04 71.87 23 67.84 29.51 61.33 39.15 70.98 28.82 81.31 27.66 81.32 14.22 68.4 26.8 55.83 12.94 41.97 2.22 52.69 10.47 60.94 14.83 56.58 12.73 54.47 10.47 56.73 6.43 52.69 12.94 46.19 22.58 55.83 12.07 66.33 .12 54.84 0 54.96 0 59.09 .12 58.97 26.46 84.29 26.43 84.31 30.09 84.31 30.06 84.28 43.36 70.98" style="fill: #626260;"/>
      <rect x="4.67" y="84.31" width="4.25" height="0" style="fill: #626260;"/>
      <rect x="15.07" y="84.31" width="4.27" height="0" style="fill: #626260;"/>
      <polygon points="88.5 84.56 88.68 84.38 88.92 84.62 89.23 84.31 88.25 84.31 88.5 84.56" style="fill: #626260;"/>
      <polygon points="89.76 58.13 103.01 45.39 104.06 45.39 114.92 55.83 105.3 65.45 98.8 58.94 102.84 54.9 105.09 57.16 107.2 55.05 102.84 50.69 94.59 58.94 105.3 69.66 119.18 55.79 105.26 42.4 105.26 42.4 105.11 42.4 101.81 42.42 75.46 67.74 49.12 42.41 45.53 42.43 32.22 55.74 46.07 69.6 56.8 58.88 48.54 50.63 44.18 54.99 46.29 57.1 48.54 54.84 52.58 58.88 46.07 65.38 36.43 55.74 46.77 45.41 47.93 45.4 61.36 58.32 48.79 70.89 62.22 84.31 63.07 84.31 73.36 74.03 65.11 65.77 60.75 70.14 62.85 72.24 65.11 69.99 69.15 74.03 62.64 80.53 53 70.89 63.51 60.38 75.46 71.88 87.62 60.19 98.38 70.95 88.74 80.59 82.23 74.09 86.27 70.05 88.52 72.31 90.63 70.2 86.27 65.84 78.02 74.09 88.25 84.31 89.23 84.31 102.59 70.95 89.76 58.13" style="fill: #626260;"/>
      <polygon points="62.83 84.56 63.07 84.31 62.22 84.31 62.4 84.5 62.58 84.32 62.83 84.56" style="fill: #626260;"/>
      <rect x="62.48" y="84.36" width=".26" height=".34" transform="translate(-41.43 69.05) rotate(-45.01)" style="fill: #626260;"/>
      <rect x="88.58" y="84.42" width=".26" height=".34" transform="translate(-33.83 87.52) rotate(-45.01)" style="fill: #626260;"/>
      <polygon points="66.66 42.4 66.66 42.4 66.66 42.4 66.66 42.4" style="fill: #626260;"/>
      <polygon points="80.49 42.4 75.7 47.11 70.91 42.4 70.91 42.41 66.66 42.41 75.7 51.29 84.74 42.41 80.49 42.41 80.49 42.4" style="fill: #626260;"/>
      <polygon points="84.74 42.4 84.74 42.4 84.74 42.4 84.74 42.4" style="fill: #626260;"/>
      <polygon points="95.16 42.4 95.16 42.4 95.16 42.4 95.16 42.4" style="fill: #626260;"/>
      <polygon points="90.89 42.4 75.7 57.18 60.51 42.4 60.51 42.41 56.24 42.41 75.7 61.34 95.16 42.41 90.89 42.41 90.89 42.4" style="fill: #626260;"/>
      <polygon points="56.24 42.4 56.24 42.4 56.24 42.4 56.24 42.4" style="fill: #626260;"/>
      <polygon points="84.75 42.41 84.74 42.4 84.74 42.41 84.75 42.41" style="fill: #626260;"/>
      <polygon points="70.91 42.4 75.7 37.7 80.49 42.4 80.49 42.4 84.74 42.4 75.7 33.52 66.66 42.4 70.91 42.4 70.91 42.4" style="fill: #626260;"/>
      <polygon points="66.66 42.41 66.66 42.4 66.66 42.41 66.66 42.41" style="fill: #626260;"/>
      <polygon points="80.49 42.4 80.49 42.41 84.74 42.41 84.74 42.4 84.74 42.4 80.49 42.4 80.49 42.4" style="fill: #626260;"/>
      <polygon points="70.91 42.41 70.91 42.4 70.91 42.4 66.66 42.4 66.66 42.4 66.66 42.41 70.91 42.41" style="fill: #626260;"/>
      <polygon points="88.5 .24 78.02 10.72 86.27 18.97 90.63 14.61 88.52 12.5 86.27 14.76 82.23 10.72 88.74 4.22 98.38 13.86 87.62 24.61 75.46 12.93 63.51 24.43 53 13.92 62.64 4.28 69.15 10.78 65.11 14.82 62.86 12.56 60.75 14.67 65.11 19.03 73.37 10.78 62.83 .25 62.59 .49 62.4 .31 48.79 13.92 61.36 26.49 47.93 39.41 46.77 39.4 36.43 29.07 46.08 19.42 52.58 25.93 48.54 29.97 46.29 27.71 44.18 29.82 48.54 34.18 56.8 25.93 46.08 15.21 32.22 29.07 45.53 42.38 49.12 42.39 75.46 17.07 101.81 42.39 105.11 42.4 105.26 42.4 105.26 42.4 119.18 29.02 105.3 15.15 94.59 25.87 102.84 34.12 107.2 29.76 105.09 27.65 102.84 29.9 98.8 25.87 105.3 19.36 114.92 28.98 104.06 39.42 103.01 39.42 89.77 26.68 102.59 13.86 88.92 .19 88.68 .43 88.5 .24" style="fill: #626260;"/>
      <polygon points="105.11 42.4 105.26 42.4 105.26 42.4 105.26 42.4 105.11 42.4" style="fill: #626260;"/>
      <polygon points="95.17 42.41 95.16 42.4 95.16 42.41 95.17 42.41" style="fill: #626260;"/>
      <polygon points="56.24 42.41 56.24 42.41 56.24 42.4 56.24 42.41" style="fill: #626260;"/>
      <polygon points="60.51 42.4 75.7 27.63 90.89 42.4 90.89 42.4 95.16 42.4 75.7 23.47 56.24 42.4 60.51 42.4 60.51 42.4" style="fill: #626260;"/>
      <polygon points="56.24 42.41 60.51 42.41 60.51 42.4 60.51 42.4 56.24 42.4 56.24 42.4 56.24 42.41" style="fill: #626260;"/>
      <polygon points="90.89 42.4 90.89 42.41 95.16 42.41 95.16 42.4 95.16 42.4 90.89 42.4 90.89 42.4" style="fill: #626260;"/>
      <polygon points="19.47 0 15.2 0 15.19 0 9.05 0 9.05 0 4.8 0 4.79 0 0 0 0 4.7 0 4.71 4.8 0 9.05 0 0 8.89 0 8.88 0 14.78 0 14.78 15.2 0 19.47 0 0 18.94 0 18.93 0 24.95 25.95 0 19.47 0 19.47 0" style="fill: none;"/>
      <rect x="4.8" y="0" width="4.25" height="0" style="fill: #626260;"/>
      <rect x="15.19" y="0" width="4.27" height="0" style="fill: #626260;"/>
      <polygon points="22.16 28.38 12.52 38.02 6.01 31.52 10.05 27.48 12.31 29.73 14.42 27.63 10.05 23.27 1.8 31.52 12.52 42.23 26.38 28.38 13.8 15.81 27.24 2.89 28.4 2.9 38.73 13.23 29.09 22.88 22.58 16.37 26.62 12.33 28.87 14.59 30.98 12.48 26.62 8.12 18.37 16.37 29.09 27.09 42.94 13.23 29.72 0 25.95 0 0 24.95 0 29.08 11.65 17.87 22.16 28.38" style="fill: #626260;"/>
      <polygon points="0 8.89 9.05 0 4.8 0 0 4.71 0 4.7 0 8.88 0 8.89" style="fill: #626260;"/>
      <polygon points="0 18.94 19.47 0 15.2 0 0 14.78 0 14.78 0 18.93 0 18.94" style="fill: #626260;"/>
      <polygon points="150.59 8.88 150.59 8.88 150.59 14.78 150.59 14.78 150.59 14.78 150.59 8.88 150.59 8.88" style="fill: none;"/>
      <polygon points="150.59 18.94 150.59 18.94 150.59 18.94 150.59 24.94 150.59 24.94 150.59 18.94" style="fill: none;"/>
      <polygon points="150.59 8.88 141.54 0 135.4 0 150.59 14.78 150.59 8.88" style="fill: none;"/>
      <line x1="145.8" y1="0" x2="150.59" y2="4.7" style="fill: none;"/>
      <polygon points="131.12 0 124.03 0 150.28 25.23 150.59 24.94 150.59 18.94 131.12 0" style="fill: none;"/>
      <polyline points="150.59 4.7 150.59 4.71 150.59 4.71" style="fill: none;"/>
      <rect x="150.59" y="24.94" width="0" height="4.13" style="fill: #626260;"/>
      <polygon points="120.44 27.15 131.16 16.43 122.91 8.18 118.55 12.54 120.66 14.65 122.91 12.39 126.95 16.43 120.44 22.93 110.82 13.32 121.68 2.88 122.73 2.88 135.98 15.62 123.15 28.44 137.01 42.29 147.73 31.58 139.48 23.33 135.12 27.69 137.22 29.8 139.48 27.54 143.51 31.58 137.01 38.08 127.37 28.44 138.13 17.68 150.28 29.36 150.59 29.07 150.59 24.94 150.28 25.23 124.03 0 120.38 0 106.57 13.27 120.44 27.15" style="fill: #626260;"/>
      <polygon points="150.59 8.88 150.59 4.71 150.59 4.71 150.59 4.7 150.59 8.88 150.59 8.88 150.59 8.88" style="fill: #626260;"/>
      <polygon points="150.59 4.7 145.8 0 141.54 0 150.59 8.88 150.59 4.7" style="fill: #626260;"/>
      <rect x="141.54" y="0" width="4.25" height="0" style="fill: #626260;"/>
      <polygon points="135.4 0 131.12 0 150.59 18.94 150.59 14.78 135.4 0" style="fill: #626260;"/>
      <polygon points="150.59 14.78 150.59 14.78 150.59 18.94 150.59 18.94 150.59 18.94 150.59 14.78 150.59 14.78" style="fill: #626260;"/>
      <rect x="131.12" y="0" width="4.27" height="0" style="fill: #626260;"/>
      <polygon points="62.64 .07 62.83 .25 63.08 0 62.09 0 62.4 .31 62.64 .07" style="fill: #626260;"/>
      <polygon points="88.5 .24 88.74 0 88.92 .19 89.11 0 88.25 0 88.5 .24" style="fill: #626260;"/>
      <rect x="88.54" y=".09" width=".34" height=".26" transform="translate(25.84 62.8) rotate(-45.01)" style="fill: #626260;"/>
      <rect x="62.44" y=".15" width=".34" height=".26" transform="translate(18.15 44.36) rotate(-45.01)" style="fill: #626260;"/>
    </g>
  </g>
</svg>