<?xml version="1.0" encoding="UTF-8"?>
<svg id="Capa_2" data-name="Capa 2" xmlns="http://www.w3.org/2000/svg" viewBox="0 0 44.07 18.58">
  <g id="Capa_1-2" data-name="Capa 1">
    <path d="M22.04,18.58l-9.29-9.29L22.04,0l9.29,9.29-9.29,9.29ZM17.14,9.29l4.89,4.9,4.9-4.9-4.9-4.89-4.89,4.89Z"/>
    <polygon points="22.95 8.38 22.95 6.1 22.04 6.1 21.12 6.1 21.12 8.38 18.85 8.38 18.85 10.2 21.12 10.2 21.12 12.48 22.95 12.48 22.95 10.2 25.22 10.2 25.22 8.38 22.95 8.38"/>
    <g>
      <polygon points="9.29 9.29 0 0 0 0 0 4.4 0 4.4 4.9 9.29 0 14.19 0 14.18 0 18.58 0 18.58 9.29 9.29"/>
      <polygon points=".91 10.2 3.19 10.2 3.19 8.38 .91 8.38 .91 6.1 0 6.1 0 6.1 0 12.48 .91 12.48 .91 10.2"/>
    </g>
    <g>
      <polygon points="39.17 9.29 44.07 4.4 44.07 0 34.78 9.29 44.07 18.58 44.07 14.18 39.17 9.29"/>
      <polygon points="43.16 6.1 43.16 8.38 40.88 8.38 40.88 10.2 43.16 10.2 43.16 12.48 44.07 12.48 44.07 6.1 43.16 6.1"/>
    </g>
  </g>
</svg>