<?xml version="1.0" encoding="UTF-8"?>
<svg id="Capa_2" data-name="Capa 2" xmlns="http://www.w3.org/2000/svg" viewBox="0 0 94.83 96.35">
  <g id="Capa_1-2" data-name="Capa 1">
    <g>
      <polygon points="23.33 94.96 21.94 96.35 24.72 96.35 23.33 94.96" style="fill: none;"/>
      <polygon points="71.45 80.84 86.97 96.35 92.56 96.35 92.67 96.24 71.47 75.09 50.11 96.35 55.93 96.35 71.45 80.84" style="fill: none;"/>
      <polygon points="23.33 89.36 30.33 96.35 33.24 96.35 23.33 86.44 13.42 96.35 16.33 96.35 23.33 89.36" style="fill: none;"/>
      <polygon points="71.45 94.96 70.06 96.35 72.84 96.35 71.45 94.96" style="fill: none;"/>
      <polygon points="0 51.95 0 58.69 .58 58.11 14.69 72.23 .58 86.34 0 85.77 0 92.79 20.42 72.37 0 51.95" style="fill: none;"/>
      <polygon points="71.45 89.36 78.45 96.35 81.36 96.35 71.45 86.44 61.54 96.35 64.45 96.35 71.45 89.36" style="fill: none;"/>
      <polygon points="23.33 80.84 38.84 96.35 44.51 96.35 23.22 75.17 2.05 96.35 2.05 96.35 7.82 96.35 23.33 80.84" style="fill: none;"/>
      <polygon points="0 63.14 0 67.2 .58 66.63 6.18 72.23 .58 77.83 0 77.25 0 81.31 9.08 72.23 0 63.14" style="fill: none;"/>
      <polygon points="21.89 .02 23.28 1.41 24.67 .02 24.65 0 21.91 0 21.89 .02" style="fill: none;"/>
      <polygon points="94.83 33.4 94.83 28.91 94.03 29.7 88.43 24.1 94.03 18.5 94.83 19.29 94.83 14.8 85.52 24.1 94.83 33.4" style="fill: none;"/>
      <polygon points="94.83 24.89 94.83 23.31 94.04 24.1 94.83 24.89" style="fill: none;"/>
      <polygon points="30.27 .02 23.28 7.03 16.28 .02 16.3 0 13.38 0 13.36 .02 23.28 9.93 33.18 .02 33.16 0 30.25 0 30.27 .02" style="fill: none;"/>
      <polygon points="94.83 92.79 94.83 85.63 94.07 86.38 79.95 72.27 94.07 58.16 94.83 58.91 94.83 51.74 74.28 72.29 94.83 92.79" style="fill: none;"/>
      <polygon points="94.83 44.61 94.83 37.42 94.03 38.22 79.91 24.1 94.03 9.98 94.83 10.78 94.83 3.57 74.3 24.09 94.83 44.61" style="fill: none;"/>
      <polygon points="94.83 81.53 94.83 77.11 94.07 77.87 88.47 72.27 94.07 66.67 94.83 67.43 94.83 63.01 85.56 72.27 94.83 81.53" style="fill: none;"/>
      <polygon points="0 71.66 0 72.8 .57 72.23 0 71.66" style="fill: none;"/>
      <polygon points="94.83 73.02 94.83 71.52 94.08 72.27 94.83 73.02" style="fill: none;"/>
      <polygon points="0 23.52 0 24.66 .57 24.09 0 23.52" style="fill: none;"/>
      <polygon points="0 3.77 0 10.55 .58 9.97 14.7 24.09 .58 38.2 0 37.62 0 44.61 20.44 24.17 0 3.77" style="fill: none;"/>
      <polygon points="0 15 0 19.07 .58 18.49 6.18 24.09 .58 29.68 0 29.1 0 33.17 9.09 24.09 0 15" style="fill: none;"/>
      <polygon points="86.99 .03 71.47 15.55 55.95 .03 55.98 0 50.22 0 50.22 0 71.5 21.29 92.78 0 86.95 0 86.99 .03" style="fill: none;"/>
      <polygon points="70.08 .03 71.47 1.43 72.86 .03 72.83 0 70.11 0 70.08 .03" style="fill: none;"/>
      <polygon points="38.79 .02 23.28 15.54 7.76 .02 7.77 0 2.05 0 1.94 .11 23.25 21.37 44.61 0 44.61 0 38.77 0 38.79 .02" style="fill: none;"/>
      <polygon points="78.47 .03 71.47 7.04 64.47 .03 64.5 0 61.59 0 61.56 .03 71.47 9.94 81.38 .03 81.35 0 78.43 0 78.47 .03" style="fill: none;"/>
      <path d="M47.32,14.19l-9.91,9.92,9.91,9.91,9.91-9.91-9.91-9.92ZM40.32,24.1l7-7,7.01,7-7.01,7-7-7Z" style="fill: none;"/>
      <path d="M71.46,38.27l-9.91,9.91,9.91,9.91,9.91-9.91-9.91-9.91ZM64.46,48.18l7-7,7,7-7,6.99-7-6.99Z" style="fill: none;"/>
      <path d="M68.7,24.09L47.41,2.81l-21.36,21.36,21.31,21.26,21.34-21.34ZM31.8,24.11l15.52-15.52,15.52,15.52-15.52,15.51-15.52-15.51Z" style="fill: none;"/>
      <path d="M71.5,26.89l-21.33,21.34,21.31,21.26,21.31-21.31-21.28-21.28ZM71.46,63.7l-15.52-15.52,15.52-15.52,15.52,15.52-15.52,15.52Z" style="fill: none;"/>
      <path d="M26.03,72.37l21.28,21.28,21.36-21.36-21.31-21.26-21.34,21.33ZM47.36,87.78l-15.52-15.52,15.52-15.52,15.52,15.52-15.52,15.52Z" style="fill: none;"/>
      <rect x="70.48" y="47.2" width="1.97" height="1.97" transform="translate(-13.14 64.64) rotate(-45)" style="fill: none;"/>
      <rect x="22.29" y="46.84" width="1.97" height="1.97" transform="translate(-26.98 30.41) rotate(-44.94)" style="fill: none;"/>
      <path d="M37.45,72.26l9.91,9.91,9.91-9.91-9.91-9.91-9.91,9.91ZM54.36,72.26l-7,7-7-7,7-7,7,7Z" style="fill: none;"/>
      <path d="M23.28,37.91l-9.92,9.91,9.92,9.91,9.91-9.91-9.91-9.91ZM16.27,47.82l7.01-7,7,7-7,7-7.01-7Z" style="fill: none;"/>
      <rect x="46.38" y="71.28" width="1.97" height="1.97" transform="translate(-37.23 54.69) rotate(-45.02)" style="fill: none;"/>
      <path d="M23.25,26.97L1.94,48.28l21.28,21.28,21.33-21.34-21.31-21.26ZM7.76,47.82l15.52-15.52,15.51,15.52-15.51,15.52-15.52-15.52Z" style="fill: none;"/>
      <rect x="46.33" y="23.12" width="1.97" height="1.97" transform="translate(-3.17 40.57) rotate(-45.06)" style="fill: none;"/>
      <path d="M71.46,32.67l-15.52,15.52,15.52,15.52,15.52-15.52-15.52-15.52ZM61.55,48.18l9.91-9.91,9.91,9.91-9.91,9.91-9.91-9.91Z" style="fill: #029382;"/>
      <path d="M31.84,72.26l15.52,15.52,15.52-15.52-15.52-15.52-15.52,15.52ZM47.36,82.18l-9.91-9.91,9.91-9.91,9.91,9.91-9.91,9.91Z" style="fill: #aa182c;"/>
      <path d="M23.28,32.3l-15.52,15.52,15.52,15.52,15.51-15.52-15.51-15.52ZM13.36,47.82l9.92-9.91,9.91,9.91-9.91,9.91-9.92-9.91Z" style="fill: #d42a76;"/>
      <path d="M47.32,8.58l-15.52,15.52,15.52,15.51,15.52-15.51-15.52-15.52ZM37.41,24.11l9.91-9.92,9.91,9.92-9.91,9.91-9.91-9.91Z" style="fill: #af2f87;"/>
      <path d="M71.46,41.18l-7,7,7,6.99,7-6.99-7-7ZM70.07,48.18l1.4-1.4,1.39,1.4-1.39,1.39-1.4-1.39Z" style="fill: #d42a76;"/>
      <path d="M47.36,79.27l7-7-7-7-7,7,7,7ZM48.76,72.26l-1.4,1.4-1.39-1.4,1.39-1.39,1.4,1.39Z" style="fill: #029382;"/>
      <path d="M23.28,40.82l-7.01,7,7.01,7,7-7-7-7ZM21.88,47.82l1.4-1.39,1.39,1.39-1.39,1.39-1.4-1.39Z" style="fill: #af2f87;"/>
      <path d="M47.32,17.1l-7,7,7,7,7.01-7-7.01-7ZM45.93,24.1l1.39-1.4,1.4,1.4-1.4,1.39-1.39-1.39Z" style="fill: #aa182c;"/>
      <polygon points="7.82 96.35 13.42 96.35 23.33 86.44 33.24 96.35 38.84 96.35 23.33 80.84 7.82 96.35" style="fill: #aa182c;"/>
      <polygon points="16.33 96.35 21.94 96.35 23.33 94.96 24.72 96.35 30.33 96.35 23.33 89.36 16.33 96.35" style="fill: #aa182c;"/>
      <polygon points="55.93 96.35 61.54 96.35 71.45 86.44 81.36 96.35 86.97 96.35 71.45 80.84 55.93 96.35" style="fill: #aa182c;"/>
      <polygon points="64.45 96.35 70.06 96.35 71.45 94.96 72.84 96.35 78.45 96.35 71.45 89.36 64.45 96.35" style="fill: #aa182c;"/>
      <polygon points="71.47 15.55 86.99 .03 86.95 0 81.35 0 81.38 .03 71.47 9.94 61.56 .03 61.59 0 55.98 0 55.95 .03 71.47 15.55" style="fill: #aa182c;"/>
      <polygon points="71.47 7.04 78.47 .03 78.43 0 72.83 0 72.86 .03 71.47 1.43 70.08 .03 70.11 0 64.5 0 64.47 .03 71.47 7.04" style="fill: #aa182c;"/>
      <polygon points="23.28 15.54 38.79 .02 38.77 0 33.16 0 33.18 .02 23.28 9.93 13.36 .02 13.38 0 7.77 0 7.76 .02 23.28 15.54" style="fill: #aa182c;"/>
      <polygon points="23.28 7.03 30.27 .02 30.25 0 24.65 0 24.67 .02 23.28 1.41 21.89 .02 21.91 0 16.3 0 16.28 .02 23.28 7.03" style="fill: #aa182c;"/>
      <polygon points="14.7 24.09 .58 9.97 0 10.55 0 15 9.09 24.09 0 33.17 0 37.62 .58 38.2 14.7 24.09" style="fill: #aa182c;"/>
      <polygon points="6.18 24.09 .58 18.49 0 19.07 0 23.52 .57 24.09 0 24.66 0 29.1 .58 29.68 6.18 24.09" style="fill: #aa182c;"/>
      <polygon points="14.69 72.23 .58 58.11 0 58.69 0 63.14 9.08 72.23 0 81.31 0 85.77 .58 86.34 14.69 72.23" style="fill: #aa182c;"/>
      <polygon points="6.18 72.23 .58 66.63 0 67.2 0 71.66 .57 72.23 0 72.8 0 77.25 .58 77.83 6.18 72.23" style="fill: #aa182c;"/>
      <polygon points="79.91 24.1 94.03 38.22 94.83 37.42 94.83 33.4 85.52 24.1 94.83 14.8 94.83 10.78 94.03 9.98 79.91 24.1" style="fill: #aa182c;"/>
      <polygon points="88.43 24.1 94.03 29.7 94.83 28.91 94.83 24.89 94.04 24.1 94.83 23.31 94.83 19.29 94.03 18.5 88.43 24.1" style="fill: #aa182c;"/>
      <polygon points="79.95 72.27 94.07 86.38 94.83 85.63 94.83 81.53 85.56 72.27 94.83 63.01 94.83 58.91 94.07 58.16 79.95 72.27" style="fill: #aa182c;"/>
      <polygon points="88.47 72.27 94.07 77.87 94.83 77.11 94.83 73.02 94.08 72.27 94.83 71.52 94.83 67.43 94.07 66.67 88.47 72.27" style="fill: #aa182c;"/>
      <path d="M74.28,72.29l20.55-20.55v-7.13l-20.52-20.52L94.83,3.57V0h-2.04l-21.29,21.29L50.22,0h0s-5.61,0-5.61,0h0s-21.36,21.37-21.36,21.37L1.94.11l.11-.11H0v3.77l20.44,20.4L0,44.61v7.33l20.42,20.42L0,92.79v3.56h2.05,0s21.18-21.18,21.18-21.18l21.28,21.18h5.6l21.37-21.26,21.2,21.15-.11.11h2.26v-3.56l-20.55-20.51ZM47.41,2.81l21.28,21.28-21.34,21.34-21.31-21.26L47.41,2.81ZM1.94,48.28l21.31-21.31,21.31,21.26-21.33,21.34L1.94,48.28ZM47.31,93.65l-21.28-21.28,21.34-21.33,21.31,21.26-21.36,21.36ZM71.47,69.49l-21.31-21.26,21.33-21.34,21.28,21.28-21.31,21.31Z" style="fill: #aa182c;"/>
    </g>
  </g>
</svg>