<?xml version="1.0" encoding="UTF-8"?>
<svg id="Capa_2" xmlns="http://www.w3.org/2000/svg" version="1.1" viewBox="0 0 17.3 18.9" preserveAspectRatio="xMidYMid meet">
  <defs>
    <style>
      .st0 {
        fill: #af182e;
      }
    </style>
  </defs>
  <path class="st0" d="M8.7,8.4l-3.1,3.1,3.1,3.1,3.2-3.1-3.2-3.1ZM7,11.5l1.7-1.7,1.7,1.7-1.7,1.7-1.7-1.7Z"/>
  <polygon class="st0" points="9 11.2 9 10.5 8.3 10.5 8.3 11.2 7.6 11.2 7.6 11.9 8.3 11.9 8.3 12.6 8.7 12.6 9 12.6 9 11.9 9.7 11.9 9.7 11.2 9 11.2"/>
  <polygon class="st0" points="0 14.5 4.4 18.9 8.2 15.1 5.1 11.9 2.4 14.6 4.4 16.5 5.9 15 5.1 14.3 4.4 15 3.9 14.6 5.1 13.4 6.8 15.1 4.4 17.5 1.5 14.5 8.7 7.4 15.8 14.5 12.9 17.5 10.6 15.1 12.2 13.4 13.4 14.6 13 15 12.2 14.3 11.5 15 13 16.5 14.9 14.6 12.2 11.9 9.1 15.1 12.9 18.9 17.3 14.5 8.7 5.9 0 14.5"/>
  <polygon class="st0" points="14.2 7.4 17.3 10.6 17.3 9.1 15.7 7.4 17.3 5.8 17.3 4.3 14.2 7.4"/>
  <polygon class="st0" points="17 7.1 16.2 7.1 16.2 7.7 17 7.7 17 8.5 17.3 8.5 17.3 6.3 17 6.3 17 7.1"/>
  <polygon class="st0" points="13 1.5 15.4 3.9 13.8 5.5 12.6 4.3 13 3.9 13.8 4.7 14.5 3.9 13 2.4 11.1 4.3 13.8 7 16.9 3.9 13 0 8.7 4.4 17.3 13 17.3 11.6 10.2 4.4 13 1.5"/>
  <polygon class="st0" points="0 4.3 0 5.8 0 5.8 1.7 7.4 0 9.1 0 9.1 0 10.6 3.1 7.4 0 4.3"/>
  <polygon class="st0" points=".3 7.7 1.1 7.7 1.1 7.1 .3 7.1 .3 6.3 0 6.3 0 8.5 .3 8.5 .3 7.7"/>
  <polygon class="st0" points=".4 3.9 3.5 7 6.2 4.3 4.3 2.4 2.8 3.9 3.5 4.7 4.3 3.9 4.7 4.3 3.5 5.5 1.9 3.9 4.3 1.5 7.2 4.4 0 11.6 0 13 8.7 4.4 4.3 0 .4 3.9"/>
</svg>
